# xmcd CD database file
#
# Track frame offsets:
#	150
#	16784
#	32440
#	49914
#	65780
#	84922
#	102278
#	119369
#	135036
#	151936
#	168363
#	188817
#	208911
#	235771
#
# Disc length: 3376 seconds
#
# Revision: 0
# Processed by: cddbd v1.5.2PL0 Copyright (c) Steve Scherf et al.
# Submitted via: CDex 1.51
#
DISCID=ab0d2e0e
DTITLE=Gare Du Nord - Greatest Hits
DYEAR=2010
DGENRE=Jazz
TTITLE0=Beautiful day
TTITLE1=Dish of the day
TTITLE2=A matter of time
TTITLE3=Almost there
TTITLE4=You're my medicine (ft. Marvin Gaye)
TTITLE5=Pablo's blues (ft. Robert Johnson)
TTITLE6=Marvin and Miles
TTITLE7=Summertime
TTITLE8=Ride on (ft. Paul Carrack)
TTITLE9=Come to the ball
TTITLE10=Sold my soul (ft. Robert Walker)
TTITLE11=Berlin beat
TTITLE12=We still grow (ft. Erik Truffaz)
TTITLE13=Christmas every day
EXTD=YEAR: 2010
EXTT0=
EXTT1=
EXTT2=
EXTT3=
EXTT4=
EXTT5=
EXTT6=
EXTT7=
EXTT8=
EXTT9=
EXTT10=
EXTT11=
EXTT12=
EXTT13=
PLAYORDER=
